<mxfile host="65bd71144e">
    <diagram id="dL68ML8HeQB0krsFM4QG" name="Page-1">
        <mxGraphModel dx="1079" dy="511" grid="1" gridSize="10" guides="1" tooltips="1" connect="1" arrows="1" fold="1" page="1" pageScale="1" pageWidth="827" pageHeight="1169" math="0" shadow="0">
            <root>
                <mxCell id="0"/>
                <mxCell id="1" parent="0"/>
                <mxCell id="0n8z57wEoNdcpEe77m6L-2" value="&lt;div&gt;Main&lt;/div&gt;&lt;div&gt;Program&lt;/div&gt;" style="ellipse;whiteSpace=wrap;html=1;fillColor=#dae8fc;strokeColor=#808080;" parent="1" vertex="1">
                    <mxGeometry x="365" y="35" width="90" height="90" as="geometry"/>
                </mxCell>
                <mxCell id="AYBJWy7RnWGATPJfJ0bl-2" style="edgeStyle=orthogonalEdgeStyle;rounded=0;orthogonalLoop=1;jettySize=auto;html=1;entryX=0.5;entryY=0;entryDx=0;entryDy=0;" parent="1" source="CHyU5B67_R3pXy2R8SUt-1" target="CHyU5B67_R3pXy2R8SUt-4" edge="1">
                    <mxGeometry relative="1" as="geometry">
                        <Array as="points">
                            <mxPoint x="190" y="200"/>
                            <mxPoint x="630" y="200"/>
                        </Array>
                    </mxGeometry>
                </mxCell>
                <mxCell id="AYBJWy7RnWGATPJfJ0bl-3" value="3" style="edgeLabel;html=1;align=center;verticalAlign=middle;resizable=0;points=[];" parent="AYBJWy7RnWGATPJfJ0bl-2" connectable="0" vertex="1">
                    <mxGeometry x="-0.1417" y="-5" relative="1" as="geometry">
                        <mxPoint x="24" y="-15" as="offset"/>
                    </mxGeometry>
                </mxCell>
                <mxCell id="CHyU5B67_R3pXy2R8SUt-1" value="Chef" style="ellipse;whiteSpace=wrap;html=1;fillColor=#dae8fc;strokeColor=#808080;" parent="1" vertex="1">
                    <mxGeometry x="150" y="220" width="80" height="80" as="geometry"/>
                </mxCell>
                <mxCell id="CHyU5B67_R3pXy2R8SUt-4" value="Kitchen" style="ellipse;whiteSpace=wrap;html=1;" parent="1" vertex="1">
                    <mxGeometry x="590" y="220" width="80" height="80" as="geometry"/>
                </mxCell>
                <mxCell id="CHyU5B67_R3pXy2R8SUt-40" value="&lt;div&gt;&lt;br&gt;&lt;/div&gt;&lt;div&gt;1 - inst, start&lt;br&gt;&lt;/div&gt;&lt;div&gt;2 - inst&lt;/div&gt;&lt;div&gt;3 - startPreparation, proceedToPresentation, haveNextPortionReady, continuePreparation, cleanUp, hasTheOrderBeenCompleted/ haveAllPortionBeenDelivered&lt;br&gt;&lt;/div&gt;&lt;div&gt;4 - watchTheNews, alertTheWaiter&lt;br&gt;&lt;/div&gt;&lt;div&gt;5 - handTheNoteToTheChef, collectPortion&lt;/div&gt;&lt;div&gt;6 - returningToTheBar, prepareTheBill, lookAroud/ sayGoodBye&lt;br&gt;&lt;/div&gt;&lt;div&gt;7 - saluteTheClient, getThePad, deliverPortions/ haveAllClientsBeenServed, presentTheBill&lt;/div&gt;&lt;div&gt;8 - signalTheWaiter, callTheWaiter&lt;br&gt;&lt;/div&gt;&lt;div&gt;9 - walkABit, enter, readTheMenu, informCompanion, prepareTheOrder, joinTheTalk, hasEveryBodyFinished, startEating, endEating, honourTheBill, shouldHaveArrivedEarlier, addUpOnesChoice, HasEverybodyChosen, describeTheOrder, exit&lt;br&gt;&lt;/div&gt;" style="text;html=1;strokeColor=none;fillColor=none;align=left;verticalAlign=middle;whiteSpace=wrap;rounded=0;" parent="1" vertex="1">
                    <mxGeometry x="20" y="770" width="290" height="290" as="geometry"/>
                </mxCell>
                <mxCell id="u7dFwe4MQtNVLNE_dl1I-13" style="edgeStyle=orthogonalEdgeStyle;rounded=0;orthogonalLoop=1;jettySize=auto;html=1;entryX=0.354;entryY=0.99;entryDx=0;entryDy=0;entryPerimeter=0;" parent="1" source="8J0D2MA1v4f_pQBH2An4-2" target="8J0D2MA1v4f_pQBH2An4-4" edge="1">
                    <mxGeometry relative="1" as="geometry">
                        <Array as="points">
                            <mxPoint x="190" y="480"/>
                            <mxPoint x="618" y="480"/>
                        </Array>
                    </mxGeometry>
                </mxCell>
                <mxCell id="u7dFwe4MQtNVLNE_dl1I-15" value="8" style="edgeLabel;html=1;align=center;verticalAlign=middle;resizable=0;points=[];" parent="u7dFwe4MQtNVLNE_dl1I-13" connectable="0" vertex="1">
                    <mxGeometry x="0.1015" y="1" relative="1" as="geometry">
                        <mxPoint x="-35" as="offset"/>
                    </mxGeometry>
                </mxCell>
                <mxCell id="u7dFwe4MQtNVLNE_dl1I-16" style="edgeStyle=orthogonalEdgeStyle;rounded=0;orthogonalLoop=1;jettySize=auto;html=1;" parent="1" source="8J0D2MA1v4f_pQBH2An4-2" target="8J0D2MA1v4f_pQBH2An4-5" edge="1">
                    <mxGeometry relative="1" as="geometry"/>
                </mxCell>
                <mxCell id="u7dFwe4MQtNVLNE_dl1I-17" value="9" style="edgeLabel;html=1;align=center;verticalAlign=middle;resizable=0;points=[];" parent="u7dFwe4MQtNVLNE_dl1I-16" connectable="0" vertex="1">
                    <mxGeometry x="-0.0573" y="-2" relative="1" as="geometry">
                        <mxPoint y="-2" as="offset"/>
                    </mxGeometry>
                </mxCell>
                <mxCell id="8J0D2MA1v4f_pQBH2An4-2" value="&lt;div&gt;Student[n]&lt;/div&gt;&lt;div&gt;n=0..7&lt;/div&gt;" style="ellipse;whiteSpace=wrap;html=1;fillColor=#dae8fc;strokeColor=#808080;" parent="1" vertex="1">
                    <mxGeometry x="150" y="510" width="80" height="80" as="geometry"/>
                </mxCell>
                <mxCell id="u7dFwe4MQtNVLNE_dl1I-6" style="edgeStyle=orthogonalEdgeStyle;rounded=0;orthogonalLoop=1;jettySize=auto;html=1;entryX=0;entryY=1;entryDx=0;entryDy=0;" parent="1" source="8J0D2MA1v4f_pQBH2An4-3" target="CHyU5B67_R3pXy2R8SUt-4" edge="1">
                    <mxGeometry relative="1" as="geometry">
                        <Array as="points">
                            <mxPoint x="560" y="370"/>
                            <mxPoint x="560" y="288"/>
                        </Array>
                    </mxGeometry>
                </mxCell>
                <mxCell id="u7dFwe4MQtNVLNE_dl1I-7" value="&lt;div&gt;5&lt;/div&gt;" style="edgeLabel;html=1;align=center;verticalAlign=middle;resizable=0;points=[];" parent="u7dFwe4MQtNVLNE_dl1I-6" connectable="0" vertex="1">
                    <mxGeometry x="-0.1707" relative="1" as="geometry">
                        <mxPoint x="-10" as="offset"/>
                    </mxGeometry>
                </mxCell>
                <mxCell id="u7dFwe4MQtNVLNE_dl1I-8" style="edgeStyle=orthogonalEdgeStyle;rounded=0;orthogonalLoop=1;jettySize=auto;html=1;" parent="1" source="8J0D2MA1v4f_pQBH2An4-3" target="8J0D2MA1v4f_pQBH2An4-4" edge="1">
                    <mxGeometry relative="1" as="geometry"/>
                </mxCell>
                <mxCell id="u7dFwe4MQtNVLNE_dl1I-9" value="6" style="edgeLabel;html=1;align=center;verticalAlign=middle;resizable=0;points=[];" parent="u7dFwe4MQtNVLNE_dl1I-8" connectable="0" vertex="1">
                    <mxGeometry x="0.0692" y="1" relative="1" as="geometry">
                        <mxPoint x="-22" y="1" as="offset"/>
                    </mxGeometry>
                </mxCell>
                <mxCell id="u7dFwe4MQtNVLNE_dl1I-11" style="edgeStyle=orthogonalEdgeStyle;rounded=0;orthogonalLoop=1;jettySize=auto;html=1;entryX=0.25;entryY=0.055;entryDx=0;entryDy=0;entryPerimeter=0;" parent="1" source="8J0D2MA1v4f_pQBH2An4-3" target="8J0D2MA1v4f_pQBH2An4-5" edge="1">
                    <mxGeometry relative="1" as="geometry">
                        <Array as="points">
                            <mxPoint x="570" y="430"/>
                            <mxPoint x="570" y="514"/>
                        </Array>
                    </mxGeometry>
                </mxCell>
                <mxCell id="u7dFwe4MQtNVLNE_dl1I-12" value="7" style="edgeLabel;html=1;align=center;verticalAlign=middle;resizable=0;points=[];" parent="u7dFwe4MQtNVLNE_dl1I-11" connectable="0" vertex="1">
                    <mxGeometry x="-0.2247" y="2" relative="1" as="geometry">
                        <mxPoint x="-2" as="offset"/>
                    </mxGeometry>
                </mxCell>
                <mxCell id="8J0D2MA1v4f_pQBH2An4-3" value="&lt;div&gt;Waiter&lt;/div&gt;" style="ellipse;whiteSpace=wrap;html=1;fillColor=#dae8fc;strokeColor=#808080;" parent="1" vertex="1">
                    <mxGeometry x="150" y="360" width="80" height="80" as="geometry"/>
                </mxCell>
                <mxCell id="8J0D2MA1v4f_pQBH2An4-4" value="Bar" style="ellipse;whiteSpace=wrap;html=1;" parent="1" vertex="1">
                    <mxGeometry x="590" y="360" width="80" height="80" as="geometry"/>
                </mxCell>
                <mxCell id="8J0D2MA1v4f_pQBH2An4-5" value="Table" style="ellipse;whiteSpace=wrap;html=1;" parent="1" vertex="1">
                    <mxGeometry x="590" y="510" width="80" height="80" as="geometry"/>
                </mxCell>
                <mxCell id="CHyU5B67_R3pXy2R8SUt-42" style="edgeStyle=orthogonalEdgeStyle;rounded=0;orthogonalLoop=1;jettySize=auto;html=1;entryX=0;entryY=0.5;entryDx=0;entryDy=0;" parent="1" target="8J0D2MA1v4f_pQBH2An4-2" edge="1">
                    <mxGeometry relative="1" as="geometry">
                        <mxPoint x="360" y="80" as="sourcePoint"/>
                    </mxGeometry>
                </mxCell>
                <mxCell id="CHyU5B67_R3pXy2R8SUt-43" style="edgeStyle=orthogonalEdgeStyle;rounded=0;orthogonalLoop=1;jettySize=auto;html=1;entryX=0;entryY=0.5;entryDx=0;entryDy=0;" parent="1" target="CHyU5B67_R3pXy2R8SUt-1" edge="1">
                    <mxGeometry relative="1" as="geometry">
                        <mxPoint x="360" y="80" as="sourcePoint"/>
                    </mxGeometry>
                </mxCell>
                <mxCell id="CHyU5B67_R3pXy2R8SUt-44" style="edgeStyle=orthogonalEdgeStyle;rounded=0;orthogonalLoop=1;jettySize=auto;html=1;entryX=0;entryY=0.5;entryDx=0;entryDy=0;exitX=0;exitY=0.5;exitDx=0;exitDy=0;" parent="1" source="0n8z57wEoNdcpEe77m6L-2" target="8J0D2MA1v4f_pQBH2An4-3" edge="1">
                    <mxGeometry relative="1" as="geometry">
                        <mxPoint x="360" y="80" as="sourcePoint"/>
                    </mxGeometry>
                </mxCell>
                <mxCell id="0n8z57wEoNdcpEe77m6L-5" value="1" style="edgeLabel;html=1;align=center;verticalAlign=middle;resizable=0;points=[];" parent="CHyU5B67_R3pXy2R8SUt-44" vertex="1" connectable="0">
                    <mxGeometry x="0.1443" relative="1" as="geometry">
                        <mxPoint as="offset"/>
                    </mxGeometry>
                </mxCell>
                <mxCell id="CHyU5B67_R3pXy2R8SUt-45" style="edgeStyle=orthogonalEdgeStyle;rounded=0;orthogonalLoop=1;jettySize=auto;html=1;entryX=1;entryY=0.5;entryDx=0;entryDy=0;exitX=1;exitY=0.5;exitDx=0;exitDy=0;" parent="1" source="0n8z57wEoNdcpEe77m6L-2" target="8J0D2MA1v4f_pQBH2An4-5" edge="1">
                    <mxGeometry relative="1" as="geometry">
                        <mxPoint x="720" y="560" as="targetPoint"/>
                        <Array as="points">
                            <mxPoint x="710" y="80"/>
                            <mxPoint x="710" y="550"/>
                        </Array>
                        <mxPoint x="460" y="80" as="sourcePoint"/>
                    </mxGeometry>
                </mxCell>
                <mxCell id="CHyU5B67_R3pXy2R8SUt-46" style="edgeStyle=orthogonalEdgeStyle;rounded=0;orthogonalLoop=1;jettySize=auto;html=1;entryX=1;entryY=0.5;entryDx=0;entryDy=0;" parent="1" target="CHyU5B67_R3pXy2R8SUt-4" edge="1">
                    <mxGeometry relative="1" as="geometry">
                        <Array as="points">
                            <mxPoint x="710" y="80"/>
                            <mxPoint x="710" y="260"/>
                        </Array>
                        <mxPoint x="460" y="80" as="sourcePoint"/>
                    </mxGeometry>
                </mxCell>
                <mxCell id="CHyU5B67_R3pXy2R8SUt-47" style="edgeStyle=orthogonalEdgeStyle;rounded=0;orthogonalLoop=1;jettySize=auto;html=1;entryX=0.988;entryY=0.35;entryDx=0;entryDy=0;entryPerimeter=0;" parent="1" target="8J0D2MA1v4f_pQBH2An4-4" edge="1">
                    <mxGeometry relative="1" as="geometry">
                        <Array as="points">
                            <mxPoint x="710" y="80"/>
                            <mxPoint x="710" y="388"/>
                        </Array>
                        <mxPoint x="460" y="80" as="sourcePoint"/>
                    </mxGeometry>
                </mxCell>
                <mxCell id="CHyU5B67_R3pXy2R8SUt-49" value="2" style="edgeLabel;html=1;align=center;verticalAlign=middle;resizable=0;points=[];" parent="CHyU5B67_R3pXy2R8SUt-47" connectable="0" vertex="1">
                    <mxGeometry x="-0.6125" relative="1" as="geometry">
                        <mxPoint as="offset"/>
                    </mxGeometry>
                </mxCell>
                <mxCell id="CHyU5B67_R3pXy2R8SUt-41" value="&lt;div&gt;Main&lt;/div&gt;&lt;div&gt;Program&lt;/div&gt;" style="ellipse;whiteSpace=wrap;html=1;fillColor=#dae8fc;strokeColor=#808080;" parent="1" vertex="1">
                    <mxGeometry x="370" y="40" width="80" height="80" as="geometry"/>
                </mxCell>
                <mxCell id="u7dFwe4MQtNVLNE_dl1I-1" value="" style="endArrow=classic;html=1;rounded=0;exitX=1;exitY=0.5;exitDx=0;exitDy=0;entryX=1;entryY=0;entryDx=0;entryDy=0;" parent="1" source="CHyU5B67_R3pXy2R8SUt-1" target="8J0D2MA1v4f_pQBH2An4-4" edge="1">
                    <mxGeometry width="50" height="50" relative="1" as="geometry">
                        <mxPoint x="320" y="310" as="sourcePoint"/>
                        <mxPoint x="370" y="260" as="targetPoint"/>
                        <Array as="points">
                            <mxPoint x="530" y="260"/>
                            <mxPoint x="530" y="320"/>
                            <mxPoint x="658" y="320"/>
                        </Array>
                    </mxGeometry>
                </mxCell>
                <mxCell id="u7dFwe4MQtNVLNE_dl1I-2" value="&lt;div&gt;4&lt;/div&gt;" style="edgeLabel;html=1;align=center;verticalAlign=middle;resizable=0;points=[];" parent="1" connectable="0" vertex="1">
                    <mxGeometry x="400" y="270" as="geometry">
                        <mxPoint x="-2" y="-22" as="offset"/>
                    </mxGeometry>
                </mxCell>
            </root>
        </mxGraphModel>
    </diagram>
</mxfile>